<svg xmlns="http://www.w3.org/2000/svg" viewBox="0 0 48 48" width="48" height="48">
<defs><clipPath id="c"><circle cx="24" cy="24" r="24"/></clipPath></defs>
<g clip-path="url(#c)"><rect y="0.000" width="48" height="3.742" fill="#b22234"/><rect y="3.692" width="48" height="3.742" fill="#fff"/><rect y="7.385" width="48" height="3.742" fill="#b22234"/><rect y="11.077" width="48" height="3.742" fill="#fff"/><rect y="14.769" width="48" height="3.742" fill="#b22234"/><rect y="18.462" width="48" height="3.742" fill="#fff"/><rect y="22.154" width="48" height="3.742" fill="#b22234"/><rect y="25.846" width="48" height="3.742" fill="#fff"/><rect y="29.538" width="48" height="3.742" fill="#b22234"/><rect y="33.231" width="48" height="3.742" fill="#fff"/><rect y="36.923" width="48" height="3.742" fill="#b22234"/><rect y="40.615" width="48" height="3.742" fill="#fff"/><rect y="44.308" width="48" height="3.742" fill="#b22234"/>
<rect width="26" height="25.85" fill="#3c3b6e"/><circle cx="2.60" cy="2.90" r="0.95" fill="#fff"/><circle cx="6.50" cy="2.90" r="0.95" fill="#fff"/><circle cx="10.40" cy="2.90" r="0.95" fill="#fff"/><circle cx="14.30" cy="2.90" r="0.95" fill="#fff"/><circle cx="18.20" cy="2.90" r="0.95" fill="#fff"/><circle cx="22.10" cy="2.90" r="0.95" fill="#fff"/><circle cx="2.60" cy="7.10" r="0.95" fill="#fff"/><circle cx="6.50" cy="7.10" r="0.95" fill="#fff"/><circle cx="10.40" cy="7.10" r="0.95" fill="#fff"/><circle cx="14.30" cy="7.10" r="0.95" fill="#fff"/><circle cx="18.20" cy="7.10" r="0.95" fill="#fff"/><circle cx="22.10" cy="7.10" r="0.95" fill="#fff"/><circle cx="2.60" cy="11.30" r="0.95" fill="#fff"/><circle cx="6.50" cy="11.30" r="0.95" fill="#fff"/><circle cx="10.40" cy="11.30" r="0.95" fill="#fff"/><circle cx="14.30" cy="11.30" r="0.95" fill="#fff"/><circle cx="18.20" cy="11.30" r="0.95" fill="#fff"/><circle cx="22.10" cy="11.30" r="0.95" fill="#fff"/><circle cx="2.60" cy="15.50" r="0.95" fill="#fff"/><circle cx="6.50" cy="15.50" r="0.95" fill="#fff"/><circle cx="10.40" cy="15.50" r="0.95" fill="#fff"/><circle cx="14.30" cy="15.50" r="0.95" fill="#fff"/><circle cx="18.20" cy="15.50" r="0.95" fill="#fff"/><circle cx="22.10" cy="15.50" r="0.95" fill="#fff"/><circle cx="2.60" cy="19.70" r="0.95" fill="#fff"/><circle cx="6.50" cy="19.70" r="0.95" fill="#fff"/><circle cx="10.40" cy="19.70" r="0.95" fill="#fff"/><circle cx="14.30" cy="19.70" r="0.95" fill="#fff"/><circle cx="18.20" cy="19.70" r="0.95" fill="#fff"/><circle cx="22.10" cy="19.70" r="0.95" fill="#fff"/>
</g></svg>